# xmcd CD database file generated by Grip 3.2.0
# 
# Track frame offsets:
#       150
#       11293
#       20173
#       28661
#       38717
#       48210
#       58449
#       67947
#       78157
#       87709
#       96634
#       107191
#       118399
#       130017
#       138923
#       147968
#       158192
#       167039
#       180454
#       190365
# 
# Disc length: 2696 seconds
# 
# Revision: 1
# Processed by: cddbd v1.5.1PL2 Copyright (c) Steve Scherf et al.
# Submitted via: Grip 3.2.0
# 
DISCID=1b0a8614
DTITLE=Various Artist - Rhythm and Blues Goes Rock 'n' Roll - Vol 2 - Disc 5
DYEAR=2002
DGENRE=Other
TTITLE0=Famous Renegades - Invasion
TTITLE1=Miss Baker - You'd Better Find
TTITLE2=Arabians - Dog Wild
TTITLE3=Lowell Fulson - Stop And Think
TTITLE4=Bonnie Graham - Prove You Love Me Baby
TTITLE5=The Victors - Take A Trip
TTITLE6=Billy Garner - Little Schoolgirl
TTITLE7=Jimmie Knight - Little Ann
TTITLE8=George Young - Can't Stop Me
TTITLE9=Ernie Williams - My Pretty Baby
TTITLE10=The Flames - What You Gonna Do
TTITLE11=Nat Robertson - Country Boy
TTITLE12=Good Guys - Whoa Whoa
TTITLE13=Peppermint Harris - Angel Child
TTITLE14=Frankie Lee Sims - She Likes To Boogie Real Slow
TTITLE15=Lightnin' Hopkins - Movin' Out
TTITLE16=Lord Luther - Thinkin' Man's Girl
TTITLE17=Joe Neal - She's My Baby
TTITLE18=Big John Greer - Come Back
TTITLE19=The Cardinals - Choo Choo
EXTD=YEAR: 2002
EXTT0=
EXTT1=
EXTT2=
EXTT3=
EXTT4=
EXTT5=
EXTT6=
EXTT7=
EXTT8=
EXTT9=
EXTT10=
EXTT11=
EXTT12=
EXTT13=
EXTT14=
EXTT15=
EXTT16=
EXTT17=
EXTT18=
EXTT19=
PLAYORDER=
